<svg xmlns="http://www.w3.org/2000/svg" width="112.164" height="25.951"><g data-name="Group 12" opacity=".5"><path data-name="Path 32" d="M107.57 25.463h4.593V0h-4.593Zm-42.544-5.4c-1 3.179-3.3 5.885-8.612 5.885-5.681 0-9.549-4.06-9.549-10.312 0-5.968 4.069-9.947 9.428-9.947 6.124 0 9.1 4.263 9.1 10.191v1.177H51.338c.323 2.639 1.974 5.031 5.358 5a4.577 4.577 0 0 0 3.991-2Zm-13.567-6.458h9.348a4.279 4.279 0 0 0-4.513-4.223 4.686 4.686 0 0 0-4.835 4.223Zm47.662 6.461a4.577 4.577 0 0 1-3.991 2c-3.384.027-5.035-2.365-5.358-5h14.058v-1.177c0-5.928-2.976-10.191-9.1-10.191-5.359 0-9.428 3.979-9.428 9.947 0 6.252 3.868 10.312 9.549 10.312 5.312 0 7.616-2.706 8.611-5.885ZM94.727 9.385a4.279 4.279 0 0 1 4.513 4.22h-9.348a4.686 4.686 0 0 1 4.835-4.22Zm-69.46 11.174h-4.9V4.975H4.9V.037h20.367ZM4.9 4.975H0v20.523h20.366v-4.939H4.9ZM84.682 6.18l-7.135 19.355h-4.3L66.114 6.181h4.741l4.385 12.8.139.576.134-.554 4.43-12.825ZM38.586 25.463h4.593V.005h-4.593Z" fill-rule="evenodd"/></g></svg>